<?xml version="1.0" standalone="no"?><!DOCTYPE svg PUBLIC "-//W3C//DTD SVG 1.1//EN" "http://www.w3.org/Graphics/SVG/1.1/DTD/svg11.dtd"><svg width="200" height="200" viewBox="0 0 200 200" version="1.1" xmlns="http://www.w3.org/2000/svg" xmlns:xlink="http://www.w3.org/1999/xlink"><defs><style type="text/css"><![CDATA[
@font-face { font-family: ifont; src: url(http://at.alicdn.com/t/font_1442373896_4754455.eot?#iefix) format(embedded-opentype), url(http://at.alicdn.com/t/font_1442373896_4754455.woff) format(woff), url(http://at.alicdn.com/t/font_1442373896_4754455.ttf) format(truetype), url(http://at.alicdn.com/t/font_1442373896_4754455.svg#ifont) format(svg); }

]]></style></defs><g class="transform-group"><g transform="scale(0.1953125, 0.1953125)"><path d="M769.094938 957.475887c-8.553817 0-17.108656-2.119267-24.677029-6.1777L517.950014 830.296323 291.44528 951.298188c-17.911952 9.579169-41.125653 7.494695-57.137325-5.116531-16.376992-12.831236-23.908526-34.402531-19.156292-54.908564l59.331293-255.677147L83.913667 462.243783c-16.341177-14.842033-21.971407-38.786375-14.074553-59.550281 7.860015-20.617573 27.746948-34.4363 49.461505-34.4363l229.610468 1.973958c3.693112 0 6.909363-2.192945 8.335852-5.556553l111.826901-269.275863c8.334829-19.995403 27.490098-32.937157 48.876174-32.937157 21.348214 0 40.540322 12.941753 48.876174 32.937157l111.826901 269.275863c1.38965 3.363607 4.641717 5.556553 8.261151 5.556553l215.611639-1.864464c22.151509 0 41.417295 13.196557 49.568952 33.559327 8.262174 20.543895 3.40147 43.757596-12.356422 59.148122L764.927011 631.500675c-2.302439 2.230808-3.218298 5.482875-2.488681 8.627495l58.273195 251.144924c4.752234 20.506033-2.777253 42.077328-19.156292 54.94438C792.345478 953.454294 780.791327 957.475887 769.094938 957.475887L769.094938 957.475887zM516.854053 767.745708l207.237925 116.14116c2.156106 1.171686 4.644787 2.083451 8.080026-0.729617 2.339278-1.939165 3.400446-5.15644 2.704598-8.226359L685.999404 653.946896c-3.616364-16.266475 1.171686-33.559327 12.466939-45.110407l146.664338-149.95529c2.232854-2.302439 2.925632-5.739724 1.75497-8.773827-1.168616-3.069919-3.875261-5.009084-6.980995-5.009084l-180.917466 1.645476c-18.315134 0-34.401508-11.368932-41.346687-28.990265L523.762393 180.722014c-2.339278-5.921873-11.516288-5.958712-13.854543 0l-93.840248 237.032508c-6.983041 17.621333-23.067368 28.990265-40.980343 28.990265l0 0-192.652741-1.75497c-3.180436 0-5.921873 2.010797-7.05672 5.117554-1.1328 3.069919-0.328481 6.652514 1.973958 8.846482l176.276772 168.196747-54.834886 247.817132c-0.657986 3.03308 0.402159 6.250354 2.705622 8.15268 3.473101 2.886747 5.958712 1.974981 8.114818 0.766456L516.854053 767.745708 516.854053 767.745708z" fill="#ff5d8f"></path></g></g></svg>